<svg xmlns="http://www.w3.org/2000/svg" xmlns:xlink="http://www.w3.org/1999/xlink" version="1.1" 
    x="0px" y="0px" viewBox="0 0 100 125" 
    style="enable-background:new 0 0 100 100;" 
    xml:space="preserve" fill="#ffffff" transform="rotate(-135)" >
  <path d="M5.23,5.95c0.58-0.76,1.57-0.04,2,0.48C26.5,29.25,47.63,50.46,70.38,69.79c5.52,4.69,11.14,9.26,16.84,13.72  c-0.75-1.63-1.44-3.3-2.06-4.99c-0.17-0.47-0.33-1.19-0.56-1.88c-0.12,0.03-0.26,0.03-0.42,0c-0.89-0.16-1.65-1.36-1.77-2.18  c-0.08-0.55-0.16-1.09-0.23-1.64c-0.12-0.84,0.4-2.04,1.45-1.31c3.13,2.18,3.79,6.2,5.18,9.53c1.58,3.79,3.53,7.41,5.76,10.87  c0.34,0.53,0.64,1.57,0.2,2.14c-0.41,0.54-1.24,0.3-1.66-0.12c-5.38-5.48-13.69-5.57-20.59-7.83c-0.92-0.3-1.61-1.25-1.77-2.18  c-0.11-0.67,0.14-1.77,1.08-1.46c4.81,1.57,10.09,2.23,14.82,4.06C63.81,68.64,42.39,48.94,22.65,27.65  C16.87,21.42,11.23,15.04,5.74,8.54C5.24,7.94,4.67,6.69,5.23,5.95z" stroke="#ffffff" stroke-width="4"/>
</svg>
